<svg
          width="43"
          height="54"
          viewBox="0 0 43 54"
          fill="none"
          xmlns="http://www.w3.org/2000/svg"
        >
          <path
            fill-rule="evenodd"
            clip-rule="evenodd"
            d="M19.8202 0.0826451C19.7176 0.123381 19.2981 0.185233 18.8879 0.220083C18.4777 0.254933 17.6193 0.390128 16.9804 0.520465C12.1953 1.49664 7.79723 4.17755 4.7347 7.98507C2.17523 11.1671 0.500204 15.2251 0.109766 19.1897C-0.563805 26.0293 1.86385 33.1658 7.3586 40.4992C10.353 44.4954 14.4631 48.6835 18.7947 52.1518C20.1485 53.2359 21.1813 54 21.3151 54C21.5707 54 25.1895 50.7349 27.628 48.2936C28.9226 46.9973 30.0193 45.7826 30.0193 45.7826C30.1107 45.7036 30.3645 45.4428 30.6611 45.1142C37.8014 37.2029 41.8677 29.6808 42.5176 23.1811C42.7183 21.174 42.6039 20.1775 42.0345 18.9729C41.5768 18.0045 40.6312 17.0069 39.7795 16.594C38.309 15.881 38.92 15.9339 31.7651 15.901C27.426 15.8811 25.1872 15.9042 24.8602 15.9722C22.8281 16.395 21.3543 18.1945 21.3607 20.2449C21.3635 21.1177 21.4711 21.627 21.7915 22.2827C22.2816 23.2858 23.1782 24.0689 24.3401 24.5085C24.8285 24.6933 25.0674 24.7047 29.0735 24.7348L33.2925 24.7665L33.2334 25.0182C32.9992 26.0148 32.0982 27.792 31.2265 28.9763C30.6353 29.7795 29.2715 31.0786 28.4026 31.6662C26.0895 33.2305 23.9742 33.8748 21.2186 33.8546C17.8009 33.8295 14.9286 32.6184 12.5009 30.1787C10.7251 28.3942 9.64892 26.3892 9.08583 23.8167C8.84185 22.7022 8.84204 20.0822 9.08611 18.967C10.4612 12.6838 16.0537 8.45671 22.3147 8.96815C24.1184 9.11549 25.3284 9.46596 27.1835 10.3783C28.7062 11.1272 29.6389 11.2795 30.8178 10.9718C32.7782 10.4601 34.0682 8.77419 34.0682 6.72375C34.0682 4.90959 33.1701 3.54465 31.3454 2.58567C28.9189 1.31043 26.917 0.682194 23.6891 0.182804C23.3046 0.123381 22.902 0.0579795 22.7947 0.037518C22.6727 0.014347 21.8619 0.00257434 21.8619 0.00257434C21.8619 0.00257434 21.4393 -0.00321812 20.7291 0.00257463C20.3318 0.00584472 19.9227 0.0419091 19.8202 0.0826451Z"
            fill="url(#paint0_linear_6_69)"
          />
          <defs>
            <linearGradient
              id="paint0_linear_6_69"
              x1="21.3047"
              y1="-3.44267e-10"
              x2="21.3047"
              y2="54"
              gradientUnits="userSpaceOnUse"
            >
              <stop stop-color="#1E88E5" />
              <stop offset="0.794395" stop-color="#844C64" />
              <stop offset="1" stop-color="#B34126" />
            </linearGradient>
          </defs>
        </svg>