<svg width="353" height="407" viewBox="0 0 353 407" fill="none" xmlns="http://www.w3.org/2000/svg">
<path d="M273 225.5C273 300.887 211.887 362 136.5 362C61.1131 362 0 300.887 0 225.5C0 150.113 61.1131 89 136.5 89C211.887 89 273 150.113 273 225.5Z" fill="#FECCAA"/>
<path d="M353 89C353 121.585 326.585 148 294 148C261.415 148 235 121.585 235 89C235 56.4152 261.415 30 294 30C326.585 30 353 56.4152 353 89Z" fill="#FECCAA"/>
<path d="M219 29.5C219 45.7924 205.792 59 189.5 59C173.208 59 160 45.7924 160 29.5C160 13.2076 173.208 0 189.5 0C205.792 0 219 13.2076 219 29.5Z" fill="#FECCAA"/>
<path d="M294 377.5C294 393.792 280.792 407 264.5 407C248.208 407 235 393.792 235 377.5C235 361.208 248.208 348 264.5 348C280.792 348 294 361.208 294 377.5Z" fill="#FECCAA"/>
</svg>
